<?xml version="1.0" encoding="UTF-8" standalone="no"?>
<svg
   width="563.41461"
   height="150"
   viewBox="0 0 563.41461 150"
   fill="none"
   version="1.1"
   id="svg6"
   sodipodi:docname="aircall-desktop-phone.svg"
   inkscape:version="1.2.2 (732a01da63, 2022-12-09)"
   xmlns:inkscape="http://www.inkscape.org/namespaces/inkscape"
   xmlns:sodipodi="http://sodipodi.sourceforge.net/DTD/sodipodi-0.dtd"
   xmlns="http://www.w3.org/2000/svg"
   xmlns:svg="http://www.w3.org/2000/svg">
  <defs
     id="defs10" />
  <sodipodi:namedview
     id="namedview8"
     pagecolor="#ffffff"
     bordercolor="#000000"
     borderopacity="0.25"
     inkscape:showpageshadow="2"
     inkscape:pageopacity="0.0"
     inkscape:pagecheckerboard="0"
     inkscape:deskcolor="#d1d1d1"
     showgrid="false"
     inkscape:zoom="2.2568493"
     inkscape:cx="131.37785"
     inkscape:cy="84.409712"
     inkscape:window-width="2400"
     inkscape:window-height="1471"
     inkscape:window-x="2391"
     inkscape:window-y="-9"
     inkscape:window-maximized="1"
     inkscape:current-layer="svg6" />
  <path
     fill-rule="evenodd"
     clip-rule="evenodd"
     d="m 177.61981,34 c 8.7012,0 16.3979,0.696355 21.0803,1.76365 9.3357,1.93485 16.6875,9.19585 18.6465,18.41635 1.0806,4.6245 1.7857,12.2262 1.7857,20.82 0,8.5938 -0.7051,16.1955 -1.7857,20.82 -1.959,9.2205 -9.3108,16.4815 -18.6465,18.4164 -4.6824,1.0672 -12.3791,1.7636 -21.0803,1.7636 -8.7013,0 -16.398,-0.6964 -21.0803,-1.7636 -9.3357,-1.9349 -16.68749,-9.1959 -18.64652,-18.4164 -1.08063,-4.6245 -1.78569,-12.2262 -1.78569,-20.82 0,-8.5938 0.70506,-16.1955 1.78569,-20.82 1.95903,-9.2205 9.31082,-16.4815 18.64652,-18.41635 C 161.22181,34.696355 168.91851,34 177.61981,34 Z m 5.5099,59.4837 c 2.0358,0.4231 3.709,1.8226 4.4973,3.681 0.2601,0.6132 0.8928,0.989 1.5631,0.9284 0.2002,-0.0181 0.3709,-0.0341 0.5121,-0.0481 3.2534,-0.3212 5.8107,-0.769 7.2969,-1.2916 0.002,-0.0012 0.005,-0.0025 0.009,-0.0038 0.9983,-0.3716 1.7086,-1.3258 1.7086,-2.4445 0,-0.0278 -5e-4,-0.0555 -0.001,-0.0831 -0.002,-0.045 -0.005,-0.0909 -0.008,-0.1379 l -0.003,-0.0313 c -0.003,-0.0293 -0.005,-0.0576 -0.005,-0.0849 -0.2536,-3.3581 -2.3125,-11.2198 -5.3878,-20.1931 -3.5157,-10.2583 -7.1924,-18.5632 -8.8504,-20.1831 -7e-4,-0.0011 -0.002,-0.002 -0.002,-0.0029 -0.2622,-0.27 -0.5675,-0.4986 -0.905,-0.6749 -0.1318,-0.0745 -0.2987,-0.1457 -0.4969,-0.213 l -0.0175,-0.0059 c -1.0874,-0.3642 -3.0949,-0.6086 -5.3957,-0.6086 -2.2968,0 -4.3044,0.2444 -5.3937,0.6093 l -0.0155,0.0052 c -0.1982,0.0673 -0.3651,0.1385 -0.4969,0.213 -0.3375,0.1763 -0.6428,0.4049 -0.9075,0.6778 -1.6579,1.6199 -5.3346,9.9248 -8.8503,20.1831 -3.0753,8.9733 -5.1342,16.835 -5.3878,20.1931 -7e-4,0.0273 -0.002,0.0556 -0.005,0.0849 l -0.003,0.0313 c -0.003,0.047 -0.006,0.0929 -0.008,0.1379 -9e-4,0.0276 -0.001,0.0553 -0.001,0.0831 0,1.1187 0.7103,2.0729 1.7086,2.4445 0.003,0.0013 0.006,0.0026 0.009,0.0038 1.4876,0.5231 4.048,0.9712 7.3056,1.2925 0.1258,0.0124 0.2751,0.0265 0.448,0.0422 0.6991,0.0636 1.3599,-0.3255 1.6357,-0.9631 0.7952,-1.8387 2.4589,-3.2212 4.4802,-3.6413 1.2182,-0.2785 3.2206,-0.4601 5.4843,-0.4601 2.2637,0 4.2661,0.1816 5.4843,0.4601 z"
     fill="#00bd82"
     id="path2" />
  <path
     fill-rule="evenodd"
     clip-rule="evenodd"
     d="m 268.80231,60.7275 h 7.939 v 35.6846 h -7.939 v -6.7149 c -2.48,4.2765 -6.733,6.7303 -12.262,6.7303 -9.215,0 -16.587,-7.9923 -16.587,-17.8774 0,-9.8852 7.372,-17.8073 16.587,-17.8073 5.529,0 9.782,2.4537 12.262,6.7303 z m 118.857,0 h 7.939 v 35.6846 h -7.939 v -6.7149 c -2.481,4.2765 -6.734,6.7303 -12.263,6.7303 -9.215,0 -16.586,-7.9923 -16.586,-17.8774 0,-9.8852 7.371,-17.8073 16.586,-17.8073 5.529,0 9.782,2.4537 12.263,6.7303 z m -129.241,28.2429 c 6.025,0 10.562,-4.4869 10.562,-10.446 0,-5.889 -4.537,-10.3759 -10.562,-10.3759 -5.883,0 -10.561,4.6271 -10.561,10.3759 0,5.8189 4.678,10.446 10.561,10.446 z m 118.441,0 c 6.025,0 10.561,-4.4869 10.561,-10.446 0,-5.889 -4.536,-10.3759 -10.561,-10.3759 -5.884,0 -10.562,4.6271 -10.562,10.3759 0,5.8189 4.678,10.446 10.562,10.446 z m -88.231,-44.6848 c 2.764,0 5.103,2.3136 5.103,4.9777 0,2.8043 -2.339,5.0477 -5.103,5.0477 -2.765,0 -5.033,-2.2434 -5.033,-5.0477 0,-2.6641 2.268,-4.9777 5.033,-4.9777 z m -3.899,16.3475 h 7.868 v 35.6845 h -7.868 z m 32.583,0.0152 c 1.516,0 2.975,0.2226 4.027,0.6183 0.619,0.2328 1.166,0.4901 1.59,0.7074 l -3.202,6.6295 c -1.009,-0.3024 -2.102,-0.4537 -3.195,-0.4537 -3.828,0 -8.08,3.1549 -8.08,9.1841 v 18.9837 h -7.868 V 60.6331 h 7.868 v 5.6238 c 1.559,-3.295 5.457,-5.6086 8.86,-5.6086 z m 39.515,26.2903 c -2.622,5.6787 -8.718,9.3944 -15.948,9.3944 -10.278,0 -18.146,-7.6417 -18.146,-17.8073 0,-10.1656 7.797,-17.8774 18.075,-17.8774 6.734,0 12.404,3.2951 14.956,8.3428 l -6.663,3.7157 c -1.418,-2.7342 -4.536,-4.557 -8.293,-4.557 -5.954,0 -10.278,4.4869 -10.278,10.3759 0,5.8189 4.395,10.3058 10.349,10.3058 4.04,0 7.371,-1.8929 8.931,-5.0477 z m 54.625,-42.653 v 52.032 h -7.868 v -52.032 z m 15.855,0 v 52.032 h -7.868 v -52.032 z"
     fill="#012635"
     id="path4" />
</svg>
